HIERARCHY
ROOT Hips
{
  OFFSET -203.446 92.7729 407.754
  CHANNELS 6 Xposition Yposition Zposition Zrotation Xrotation Yrotation
  JOINT Spine
  {
    OFFSET 0 8 0
    CHANNELS 6 Xposition Yposition Zposition Zrotation Xrotation Yrotation
    JOINT Spine1
    {
      OFFSET 2.172e-05 8 0
      CHANNELS 6 Xposition Yposition Zposition Zrotation Xrotation Yrotation
      JOINT Spine2
      {
        OFFSET 0 8 0
        CHANNELS 6 Xposition Yposition Zposition Zrotation Xrotation Yrotation
        JOINT Spine3
        {
          OFFSET 0 8 0
          CHANNELS 6 Xposition Yposition Zposition Zrotation Xrotation Yrotation
          JOINT Neck
          {
            OFFSET 0.000730106 17 -0.00031562
            CHANNELS 6 Xposition Yposition Zposition Zrotation Xrotation Yrotation
            JOINT Head
            {
              OFFSET 1.0897e-05 10.8 0
              CHANNELS 6 Xposition Yposition Zposition Zrotation Xrotation Yrotation
              End Site
              {
                OFFSET 0 20.25 0
              }
            }
          }
          JOINT LeftShoulder
          {
            OFFSET 5.00075 16.9998 -0.000192235
            CHANNELS 6 Xposition Yposition Zposition Zrotation Xrotation Yrotation
            JOINT LeftShoulder2
            {
              OFFSET 6.45 0 0
              CHANNELS 6 Xposition Yposition Zposition Zrotation Xrotation Yrotation
              JOINT LeftArm
              {
                OFFSET 6.45 0.000365215 0.0020447
                CHANNELS 6 Xposition Yposition Zposition Zrotation Xrotation Yrotation
                JOINT LeftForeArm
                {
                  OFFSET -1.82198e-05 -32.4 -2
                  CHANNELS 6 Xposition Yposition Zposition Zrotation Xrotation Yrotation
                  JOINT LeftHand
                  {
                    OFFSET 0 -25.65 2
                    CHANNELS 6 Xposition Yposition Zposition Zrotation Xrotation Yrotation
                    JOINT LeftHandThumb1
                    {
                      OFFSET -0.500009 -1.49999 2.65001
                      CHANNELS 6 Xposition Yposition Zposition Zrotation Xrotation Yrotation
                      JOINT LeftHandThumb2
                      {
                        OFFSET 0 -3.8 3.7
                        CHANNELS 6 Xposition Yposition Zposition Zrotation Xrotation Yrotation
                        JOINT LeftHandThumb3
                        {
                          OFFSET 0 -3.00003 2.69999
                          CHANNELS 6 Xposition Yposition Zposition Zrotation Xrotation Yrotation
                          End Site
                          {
                            OFFSET 0 -2.3 1.80002
                          }
                        }
                      }
                    }
                    JOINT LeftHandIndex
                    {
                      OFFSET 0 -1.90001 1.60001
                      CHANNELS 6 Xposition Yposition Zposition Zrotation Xrotation Yrotation
                      JOINT LeftHandIndex1
                      {
                        OFFSET 0 -8.30001 1.9
                        CHANNELS 6 Xposition Yposition Zposition Zrotation Xrotation Yrotation
                        JOINT LeftHandIndex2
                        {
                          OFFSET 0 -4.5 0
                          CHANNELS 6 Xposition Yposition Zposition Zrotation Xrotation Yrotation
                          JOINT LeftHandIndex3
                          {
                            OFFSET -1.48831e-05 -3.39995 0
                            CHANNELS 6 Xposition Yposition Zposition Zrotation Xrotation Yrotation
                            End Site
                            {
                              OFFSET 0 -2.59997 -1.46003e-05
                            }
                          }
                        }
                      }
                    }
                    JOINT LeftHandMiddle
                    {
                      OFFSET -0.250013 -2.19999 0.400008
                      CHANNELS 6 Xposition Yposition Zposition Zrotation Xrotation Yrotation
                      JOINT LeftHandMiddle1
                      {
                        OFFSET 1.27862e-05 -8.3 0.999996
                        CHANNELS 6 Xposition Yposition Zposition Zrotation Xrotation Yrotation
                        JOINT LeftHandMiddle2
                        {
                          OFFSET 1.31059e-05 -4.65 0
                          CHANNELS 6 Xposition Yposition Zposition Zrotation Xrotation Yrotation
                          JOINT LeftHandMiddle3
                          {
                            OFFSET 0 -3.3 0
                            CHANNELS 6 Xposition Yposition Zposition Zrotation Xrotation Yrotation
                            End Site
                            {
                              OFFSET -2.00465e-05 -2.70001 0
                            }
                          }
                        }
                      }
                    }
                    JOINT LeftHandRing
                    {
                      OFFSET -0.500007 -2.15 -0.799983
                      CHANNELS 6 Xposition Yposition Zposition Zrotation Xrotation Yrotation
                      JOINT LeftHandRing1
                      {
                        OFFSET 0 -7.74999 -0.200001
                        CHANNELS 6 Xposition Yposition Zposition Zrotation Xrotation Yrotation
                        JOINT LeftHandRing2
                        {
                          OFFSET 1.89754e-05 -3.80001 0
                          CHANNELS 6 Xposition Yposition Zposition Zrotation Xrotation Yrotation
                          JOINT LeftHandRing3
                          {
                            OFFSET -2.1312e-05 -3.40001 1.10787e-05
                            CHANNELS 6 Xposition Yposition Zposition Zrotation Xrotation Yrotation
                            End Site
                            {
                              OFFSET 0 -2.59999 0
                            }
                          }
                        }
                      }
                    }
                    JOINT LeftHandPinky
                    {
                      OFFSET -0.750006 -1.75 -1.84999
                      CHANNELS 6 Xposition Yposition Zposition Zrotation Xrotation Yrotation
                      JOINT LeftHandPinky1
                      {
                        OFFSET 1.03919e-05 -7.15 -1.00001
                        CHANNELS 6 Xposition Yposition Zposition Zrotation Xrotation Yrotation
                        JOINT LeftHandPinky2
                        {
                          OFFSET 0 -3.00001 1.56753e-05
                          CHANNELS 6 Xposition Yposition Zposition Zrotation Xrotation Yrotation
                          JOINT LeftHandPinky3
                          {
                            OFFSET 0 -2.34999 -1.33232e-05
                            CHANNELS 6 Xposition Yposition Zposition Zrotation Xrotation Yrotation
                            End Site
                            {
                              OFFSET 1.20371e-05 -2.10001 0
                            }
                          }
                        }
                      }
                    }
                  }
                }
              }
            }
          }
          JOINT RightShoulder
          {
            OFFSET -4.99925 17.0002 -0.00043895
            CHANNELS 6 Xposition Yposition Zposition Zrotation Xrotation Yrotation
            JOINT RightShoulder2
            {
              OFFSET -6.45 0 0
              CHANNELS 6 Xposition Yposition Zposition Zrotation Xrotation Yrotation
              JOINT RightArm
              {
                OFFSET -6.45002 6.56753e-05 0.00075552
                CHANNELS 6 Xposition Yposition Zposition Zrotation Xrotation Yrotation
                JOINT RightForeArm
                {
                  OFFSET 0 -32.4 -2.00001
                  CHANNELS 6 Xposition Yposition Zposition Zrotation Xrotation Yrotation
                  JOINT RightHand
                  {
                    OFFSET -1.12067e-05 -25.65 2.00001
                    CHANNELS 6 Xposition Yposition Zposition Zrotation Xrotation Yrotation
                    JOINT RightHandThumb1
                    {
                      OFFSET 0.500013 -1.49999 2.64999
                      CHANNELS 6 Xposition Yposition Zposition Zrotation Xrotation Yrotation
                      JOINT RightHandThumb2
                      {
                        OFFSET 0 -3.8 3.70004
                        CHANNELS 6 Xposition Yposition Zposition Zrotation Xrotation Yrotation
                        JOINT RightHandThumb3
                        {
                          OFFSET 0 -3 2.7
                          CHANNELS 6 Xposition Yposition Zposition Zrotation Xrotation Yrotation
                          End Site
                          {
                            OFFSET 1.23512e-05 -2.30001 1.8
                          }
                        }
                      }
                    }
                    JOINT RightHandIndex
                    {
                      OFFSET 1.81851e-05 -1.89999 1.59999
                      CHANNELS 6 Xposition Yposition Zposition Zrotation Xrotation Yrotation
                      JOINT RightHandIndex1
                      {
                        OFFSET -1.12154e-05 -8.29999 1.89999
                        CHANNELS 6 Xposition Yposition Zposition Zrotation Xrotation Yrotation
                        JOINT RightHandIndex2
                        {
                          OFFSET 1.11691e-05 -4.5 1.45102e-05
                          CHANNELS 6 Xposition Yposition Zposition Zrotation Xrotation Yrotation
                          JOINT RightHandIndex3
                          {
                            OFFSET 0 -3.4 0
                            CHANNELS 6 Xposition Yposition Zposition Zrotation Xrotation Yrotation
                            End Site
                            {
                              OFFSET -1.50368e-05 -2.6 0
                            }
                          }
                        }
                      }
                    }
                    JOINT RightHandMiddle
                    {
                      OFFSET 0.250012 -2.19999 0.400002
                      CHANNELS 6 Xposition Yposition Zposition Zrotation Xrotation Yrotation
                      JOINT RightHandMiddle1
                      {
                        OFFSET 0 -8.30001 0.999994
                        CHANNELS 6 Xposition Yposition Zposition Zrotation Xrotation Yrotation
                        JOINT RightHandMiddle2
                        {
                          OFFSET 0 -4.64998 0
                          CHANNELS 6 Xposition Yposition Zposition Zrotation Xrotation Yrotation
                          JOINT RightHandMiddle3
                          {
                            OFFSET -1.75439e-05 -3.30001 0
                            CHANNELS 6 Xposition Yposition Zposition Zrotation Xrotation Yrotation
                            End Site
                            {
                              OFFSET 0 -2.69999 0
                            }
                          }
                        }
                      }
                    }
                    JOINT RightHandRing
                    {
                      OFFSET 0.500005 -2.14999 -0.800011
                      CHANNELS 6 Xposition Yposition Zposition Zrotation Xrotation Yrotation
                      JOINT RightHandRing1
                      {
                        OFFSET 0 -7.75 -0.199992
                        CHANNELS 6 Xposition Yposition Zposition Zrotation Xrotation Yrotation
                        JOINT RightHandRing2
                        {
                          OFFSET 0 -3.8 -1.1575e-05
                          CHANNELS 6 Xposition Yposition Zposition Zrotation Xrotation Yrotation
                          JOINT RightHandRing3
                          {
                            OFFSET 1.86008e-05 -3.40001 0
                            CHANNELS 6 Xposition Yposition Zposition Zrotation Xrotation Yrotation
                            End Site
                            {
                              OFFSET 0 -2.59999 0
                            }
                          }
                        }
                      }
                    }
                    JOINT RightHandPinky
                    {
                      OFFSET 0.750008 -1.74999 -1.85001
                      CHANNELS 6 Xposition Yposition Zposition Zrotation Xrotation Yrotation
                      JOINT RightHandPinky1
                      {
                        OFFSET 0 -7.15 -1
                        CHANNELS 6 Xposition Yposition Zposition Zrotation Xrotation Yrotation
                        JOINT RightHandPinky2
                        {
                          OFFSET -1.09019e-05 -3.00001 1.15524e-05
                          CHANNELS 6 Xposition Yposition Zposition Zrotation Xrotation Yrotation
                          JOINT RightHandPinky3
                          {
                            OFFSET 1.11856e-05 -2.34999 0
                            CHANNELS 6 Xposition Yposition Zposition Zrotation Xrotation Yrotation
                            End Site
                            {
                              OFFSET -1.79692e-05 -2.1 0
                            }
                          }
                        }
                      }
                    }
                  }
                }
              }
            }
          }
        }
      }
    }
  }
  JOINT LeftUpLeg
  {
    OFFSET 7.99999 0 0
    CHANNELS 6 Xposition Yposition Zposition Zrotation Xrotation Yrotation
    JOINT LeftLeg
    {
      OFFSET 1.914e-05 -45 -0.999954
      CHANNELS 6 Xposition Yposition Zposition Zrotation Xrotation Yrotation
      JOINT LeftFoot
      {
        OFFSET 0 -41 -1.99999
        CHANNELS 6 Xposition Yposition Zposition Zrotation Xrotation Yrotation
        JOINT LeftToeBase
        {
          OFFSET 0 -7.5 12.5
          CHANNELS 6 Xposition Yposition Zposition Zrotation Xrotation Yrotation
          JOINT LeftFootToe
          {
            OFFSET 0 0 4
            CHANNELS 6 Xposition Yposition Zposition Zrotation Xrotation Yrotation
            End Site
            {
              OFFSET 0 0 0
            }
          }
        }
      }
    }
  }
  JOINT RightUpLeg
  {
    OFFSET -7.99999 0 0
    CHANNELS 6 Xposition Yposition Zposition Zrotation Xrotation Yrotation
    JOINT RightLeg
    {
      OFFSET -1.40974e-05 -45 -0.999999
      CHANNELS 6 Xposition Yposition Zposition Zrotation Xrotation Yrotation
      JOINT RightFoot
      {
        OFFSET 1.6484e-05 -41.0001 -2.00001
        CHANNELS 6 Xposition Yposition Zposition Zrotation Xrotation Yrotation
        JOINT RightToeBase
        {
          OFFSET 1.28783e-05 -7.5 12.5
          CHANNELS 6 Xposition Yposition Zposition Zrotation Xrotation Yrotation
          JOINT RightFootToe
          {
            OFFSET 0 0 4
            CHANNELS 6 Xposition Yposition Zposition Zrotation Xrotation Yrotation
            End Site
            {
              OFFSET 0 0 0
            }
          }
        }
      }
    }
  }
}
MOTION
Frames:	3
Frame Time:	0.0111111
-208.36 92.3884 403.934 -0.319394 -0.299888 51.5555 5.68434e-14 8 0 -1.56361 0.284339 6.6696 0 8 0 0.927137 -0.39773 20.3803 5.68434e-14 8 4.26326e-14 -1.31105 -4.46105 -51.535 0 8 0 0.439439 -0.222793 10.1221 5.68434e-14 17 5.68434e-14 0.108593 2.26354 6.90329 0 10.8 0 -4.27024 -1.07528 16.0404 5 17 0 -17.1552 -0.489179 28.8366 6.45 1.42109e-14 2.84217e-14 1.68282 1.54364 -2.43185 6.45 7.10543e-14 2.84217e-14 2.68232 -12.3912 21.7517 1.13687e-13 -32.4 -2 -23.1647 -42.7123 7.15047 -5.68434e-14 -25.65 2 -0.480242 6.75492 6.13139 -0.5 -1.5 2.65 -2.00074 -19.7009 0.617746 0 -3.8 3.7 -0.0102301 14.658 0.0315285 0 -3 2.7 -0.0594079 23.4201 -0.256759 0 -1.9 1.6 1.82749e-06 1.52667e-06 -5.04203e-07 0 -8.3 1.9 -1.04211 8.56526 0.101561 -5.68434e-14 -4.5 0 -16.4185 0.041688 -0.0210652 -5.68434e-14 -3.4 0 -13.4841 0.031334 -0.00965956 -0.25 -2.2 0.4 1.82749e-06 1.52667e-06 -5.04203e-07 0 -8.3 1 -38.1555 17.8742 7.83702 2.84217e-14 -4.65 0 -30.9608 -0.0154842 -0.0132848 5.68434e-14 -3.3 -2.84217e-14 -22.6662 -0.0213901 -0.0110384 -0.5 -2.15 -0.8 1.82749e-06 1.52667e-06 -5.04203e-07 0 -7.75 -0.2 -55.6993 3.34048 5.249 -2.84217e-14 -3.8 0 -27.8983 -0.0229779 -0.0232902 2.84217e-14 -3.4 0 -20.8196 -0.00849656 -0.018166 -0.75 -1.75 -1.85 1.82749e-06 1.52667e-06 -5.04203e-07 1.13687e-13 -7.15 -1 -82.2788 1.0536 11.2131 0 -3 0 8.39615e-05 0.0703964 0.0326007 2.84217e-14 -2.35 0 -0.000103894 0.0689456 0.0370786 -5 17 8.52651e-14 -12.5754 5.96971 26.053 -6.45 0 -2.84217e-14 -2.81385 0.413782 2.00649 -6.45 1.42109e-14 0 -24.117 9.93441 -57.7539 0 -32.4 -2 1.6097 -14.2324 -26.2898 2.84217e-14 -25.65 2 -3.29312 -7.48037 -40.4099 0.5 -1.5 2.65 -3.89106 -24.7804 0.342518 5.68434e-14 -3.8 3.7 0.173875 20.1728 -0.107273 0 -3 2.7 -0.221675 60.9071 0.126182 8.52651e-14 -1.9 1.6 6.36111e-15 -1.59028e-15 3.18055e-15 -8.52651e-14 -8.3 1.9 35.3908 10.3344 -3.73878 2.84217e-14 -4.5 0 0.997928 0.0177721 0.130203 -2.84217e-14 -3.4 0 0.983743 -0.0335628 0.0915885 0.25 -2.2 0.4 6.36111e-15 -1.59028e-15 3.18055e-15 0 -8.3 1 31.3017 11.981 -4.09366 4.26326e-14 -4.65 -5.68434e-14 5.83531 -0.102679 0.0584203 -8.52651e-14 -3.3 0 5.4019 -0.0651843 0.0499476 0.5 -2.15 -0.8 6.36111e-15 -1.59028e-15 3.18055e-15 0 -7.75 -0.2 35.8153 7.20883 -3.60028 0 -3.8 0 0.285361 -0.212326 0.0814362 -4.26326e-14 -3.4 0 0.283663 -0.193921 0.0801789 0.75 -1.75 -1.85 6.36111e-15 -1.59028e-15 3.18055e-15 0 -7.15 -1 33.5468 13.4386 -5.72378 2.84217e-14 -3 0 -2.16637e-05 -0.0424296 -0.0421496 4.26326e-14 -2.35 -5.68434e-14 -2.77835e-05 -0.0384235 -0.0358689 8 4.26326e-14 2.84217e-14 -5.66387 -6.09536 -6.61166 0 -45 -1 -0.0266357 14.1332 0.608921 0 -41 -2 5.37578 -7.46509 -4.84138 0 -7.5 12.5 9.91622e-06 0.0881808 -0.000492958 -5.68434e-14 -5.55112e-17 4 -3.72787 -3.81194 45.0746 -8 0 -2.84217e-14 -5.90089 -5.27167 -8.86741 0 -45 -1 0.0027006 12.8764 0.213963 0 -41 -2 5.47835 -6.71349 2.76967 0 -7.5 12.5 2.02781e-06 -0.0297982 7.93817e-06 5.68434e-14 0 4 -5.68194 3.57884 21.4066 
-208.344 92.3784 403.933 -0.353361 -0.343362 51.5661 5.68434e-14 8 2.84217e-14 -1.50785 0.269043 6.67382 -5.68434e-14 8 0 0.928517 -0.392089 20.3805 0 8 -2.84217e-14 -1.3102 -4.46122 -51.5347 0 8 0 0.440552 -0.223038 10.1221 5.68434e-14 17 0 0.125718 2.25142 6.88367 0 10.8 2.84217e-14 -4.24163 -1.00661 15.9989 5 17 5.68434e-14 -17.109 -0.527742 28.7725 6.45 1.42109e-14 -2.84217e-14 1.67864 1.54826 -2.43135 6.45 1.42109e-14 2.84217e-14 2.67727 -12.2418 21.6983 0 -32.4 -2 -22.7885 -43.0614 6.23888 -5.68434e-14 -25.65 2 0.889429 6.04766 5.48229 -0.5 -1.5 2.65 -1.26112 -19.6909 1.17225 0 -3.8 3.7 -0.0282122 14.6793 0.0109472 0 -3 2.7 -0.056247 21.6737 -0.194006 0 -1.9 1.6 1.82749e-06 1.52667e-06 -5.04203e-07 -5.68434e-14 -8.3 1.9 -0.999616 8.37377 0.0958429 -5.68434e-14 -4.5 0 -16.7719 0.0428662 -0.021662 5.68434e-14 -3.4 0 -13.7307 0.0319375 -0.00874886 -0.25 -2.2 0.4 1.82749e-06 1.52667e-06 -5.04203e-07 -5.68434e-14 -8.3 1 -38.5371 18.147 7.96795 0 -4.65 -2.84217e-14 -30.1275 -0.0339617 -0.0370215 5.68434e-14 -3.3 -2.84217e-14 -22.1611 -0.0217108 -0.0284969 -0.5 -2.15 -0.8 1.82749e-06 1.52667e-06 -5.04203e-07 0 -7.75 -0.2 -54.8604 3.4036 5.06375 -2.84217e-14 -3.8 0 -27.0482 -0.0634335 -0.0563663 0 -3.4 0 -20.2912 -0.0254455 -0.0459014 -0.75 -1.75 -1.85 1.82749e-06 1.52667e-06 -5.04203e-07 5.68434e-14 -7.15 -1 -82.1836 1.03785 11.1567 -2.84217e-14 -3 0 8.76762e-05 0.070635 0.0326168 5.68434e-14 -2.35 0 -0.000104531 0.0691484 0.0370345 -5 17 0 -12.523 5.92732 26.0135 -6.45 1.42109e-14 2.84217e-14 -2.80427 0.414119 2.00883 -6.45 -7.10543e-15 2.84217e-14 -24.1335 10.034 -57.7965 0 -32.4 -2 1.56508 -14.243 -26.4305 0 -25.65 2 -3.25266 -7.42915 -40.4203 0.5 -1.5 2.65 -3.88146 -24.7445 0.352855 5.68434e-14 -3.8 3.7 0.172536 20.1142 -0.107203 0 -3 2.7 -0.223625 60.8933 0.128163 0 -1.9 1.6 3.18055e-15 -1.59028e-15 6.36111e-15 -8.52651e-14 -8.3 1.9 35.426 10.3259 -3.74009 2.84217e-14 -4.5 0 0.906949 0.0176675 0.131948 -2.84217e-14 -3.4 0 0.89541 -0.0346609 0.0929562 0.25 -2.2 0.4 3.18055e-15 -1.59028e-15 6.36111e-15 0 -8.3 1 31.307 11.9713 -4.09164 4.26326e-14 -4.65 -5.68434e-14 5.80882 -0.102951 0.0594938 -8.52651e-14 -3.3 0 5.37933 -0.0654094 0.0509891 0.5 -2.15 -0.8 3.18055e-15 -1.59028e-15 6.36111e-15 -2.84217e-14 -7.75 -0.2 35.8478 7.19332 -3.59807 0 -3.8 0 0.29681 -0.214051 0.0824678 -2.84217e-14 -3.4 0 0.295073 -0.195211 0.0813816 0.75 -1.75 -1.85 3.18055e-15 -1.59028e-15 6.36111e-15 2.84217e-14 -7.15 -1 33.6035 13.4212 -5.72942 2.84217e-14 -3 -5.68434e-14 -2.21584e-05 -0.0429333 -0.0418408 2.84217e-14 -2.35 0 -2.80493e-05 -0.0386938 -0.0355883 8 1.42109e-14 5.68434e-14 -5.62989 -6.15482 -6.59754 5.68434e-14 -45 -1 -0.0277708 14.2808 0.608739 0 -41 -2 5.39033 -7.55181 -4.85963 0 -7.5 12.5 9.91557e-06 0.0881058 -0.000492958 5.68434e-14 5.55112e-17 4 -3.73696 -3.82891 45.0757 -8 -1.42109e-14 0 -5.85853 -5.25696 -8.87937 -5.68434e-14 -45 -1 -0.000945512 12.872 0.233622 5.68434e-14 -41 -2 5.49108 -6.72274 2.79276 0 -7.5 12.5 2.02773e-06 -0.0292298 7.93817e-06 -5.68434e-14 0 4 -5.70768 3.64554 21.4062 
-208.327 92.3681 403.932 -0.388816 -0.388988 51.5764 5.68434e-14 8 -2.84217e-14 -1.44726 0.251465 6.67759 5.68434e-14 8 0 0.929231 -0.384969 20.3809 0 8 0 -1.30946 -4.46132 -51.5344 0 8 0 0.441502 -0.223264 10.122 0 17 0 0.141689 2.24194 6.86364 0 10.8 0 -4.21825 -0.928443 15.9565 5 17 0 -17.0656 -0.561742 28.7091 6.45 0 -2.84217e-14 1.67695 1.55105 -2.42955 6.45 1.42109e-14 0 2.66872 -12.0942 21.6947 5.68434e-14 -32.4 -2 -22.4628 -43.3743 5.37502 0 -25.65 2 2.00386 5.35217 4.86424 -0.5 -1.5 2.65 -0.523009 -19.6673 1.76025 -5.68434e-14 -3.8 3.7 -0.0439992 14.4946 -0.00743742 0 -3 2.7 -0.0462364 20.3764 -0.128301 0 -1.9 1.6 1.82749e-06 1.52667e-06 -5.04203e-07 0 -8.3 1.9 -0.949895 8.16185 0.092294 0 -4.5 5.68434e-14 -16.981 0.0455393 -0.0214089 0 -3.4 0 -13.8665 0.0338263 -0.00721451 -0.25 -2.2 0.4 1.82749e-06 1.52667e-06 -5.04203e-07 5.68434e-14 -8.3 1 -38.9073 18.4815 8.1069 0 -4.65 0 -29.1572 -0.052371 -0.0588582 4.26326e-14 -3.3 0 -21.572 -0.022109 -0.0447667 -0.5 -2.15 -0.8 1.82749e-06 1.52667e-06 -5.04203e-07 5.68434e-14 -7.75 -0.2 -53.9067 3.47332 4.85229 0 -3.8 0 -26.0054 -0.099723 -0.0849686 2.84217e-14 -3.4 0 -19.6421 -0.0409613 -0.0701826 -0.75 -1.75 -1.85 1.82749e-06 1.52667e-06 -5.04203e-07 1.13687e-13 -7.15 -1 -82.0308 1.03992 11.0899 -2.84217e-14 -3 5.68434e-14 9.14584e-05 0.0708606 0.0326262 2.84217e-14 -2.35 0 -0.000105125 0.0693349 0.0369776 -5 17 5.68434e-14 -12.4655 5.8875 25.9762 -6.45 -2.13163e-14 -2.84217e-14 -2.79629 0.414311 2.0092 -6.45 7.10543e-15 -2.84217e-14 -24.1469 10.1386 -57.8396 0 -32.4 -2 1.52153 -14.2715 -26.5629 2.84217e-14 -25.65 2 -3.20609 -7.40337 -40.4243 0.5 -1.5 2.65 -3.86159 -24.7064 0.375145 2.84217e-14 -3.8 3.7 0.171222 20.0664 -0.107136 2.84217e-14 -3 2.7 -0.225592 60.8879 0.130172 0 -1.9 1.6 0 0 -0 -2.84217e-14 -8.3 1.9 35.4624 10.3101 -3.73918 2.84217e-14 -4.5 -5.68434e-14 0.825654 0.0175583 0.133663 -4.26326e-14 -3.4 0 0.815984 -0.0357755 0.0943718 0.25 -2.2 0.4 0 0 -0 0 -8.3 1 31.3076 11.9562 -4.08735 1.42109e-14 -4.65 0 5.79832 -0.103206 0.0605643 -7.10543e-14 -3.3 0 5.37038 -0.0656273 0.052024 0.5 -2.15 -0.8 0 0 -0 2.84217e-14 -7.75 -0.2 35.8691 7.16868 -3.59146 1.42109e-14 -3.8 0 0.321557 -0.215514 0.0834935 -2.84217e-14 -3.4 -1.13687e-13 0.319553 -0.196427 0.0826268 0.75 -1.75 -1.85 0 0 -0 -2.84217e-14 -7.15 -1 33.639 13.4027 -5.73045 1.42109e-14 -3 0 -2.25902e-05 -0.0433608 -0.0415191 2.84217e-14 -2.35 0 -2.83116e-05 -0.038955 -0.0352985 8 2.84217e-14 -2.84217e-14 -5.59473 -6.21487 -6.58843 0 -45 -1 -0.0290454 14.4321 0.608873 0 -41 -2 5.40559 -7.64089 -4.87322 0 -7.5 12.5 9.91495e-06 0.0880331 -0.000492958 0 0 4 -3.74757 -3.84397 45.0766 -8 0 0 -5.81331 -5.23809 -8.889 0 -45 -1 -0.00492223 12.8611 0.255135 0 -41 -2 5.50449 -6.73155 2.81624 5.68434e-14 -7.5 12.5 2.0274e-06 -0.026843 7.93817e-06 -1.13687e-13 0 4 -5.7334 3.71195 21.4059 
